<svg xmlns="http://www.w3.org/2000/svg" id="Group_33633" width="47.613" height="54.13" data-name="Group 33633" viewBox="0 0 47.613 54.13">
    <defs>
        <style>
            .cls-1,.cls-2{fill:#1ac977}.cls-1{opacity:.2}.cls-3{fill:#454b53}
        </style>
    </defs>
    <rect id="Rectangle_726" width="17.732" height="22.467" class="cls-1" data-name="Rectangle 726" rx="2" transform="rotate(-79.98 35.182 18.85)"/>
    <path id="Path_6194" d="M231.46 1074.256a.724.724 0 0 1-.412-.129l-3.177-2.2-2.967 1.16a.724.724 0 0 1-.977-.791l.919-5.6a.723.723 0 0 1 1.428.234l-.714 4.346 2.143-.838a.723.723 0 0 1 .675.079l2.581 1.788 1.35-7.033a.723.723 0 1 1 1.421.272l-1.559 8.124a.723.723 0 0 1-.71.587z" class="cls-2" data-name="Path 6194" transform="translate(-206.104 -1032.617)"/>
    <g id="Group_6065" data-name="Group 6065">
        <path id="Path_6195" d="M227.5 981.01a.724.724 0 0 0-.97.325 34.515 34.515 0 0 0-1.855 4.5.724.724 0 1 0 1.373.456 33.041 33.041 0 0 1 1.777-4.31.724.724 0 0 0-.325-.971z" class="cls-3" data-name="Path 6195" transform="translate(-206.617 -973.101)"/>
        <path id="Path_6196" d="M217.773 975.568a22.454 22.454 0 0 0-19-21.4l-.05-.007h-.017a22.476 22.476 0 0 0-24.738 14.088 12.069 12.069 0 0 0-.558 1.954l-.058.3v.027a.667.667 0 0 0-.007.084v.06a.763.763 0 0 0 .01.085c0 .02.006.04.011.059a.7.7 0 0 0 .026.078c.008.021.015.042.025.062s0 .013.008.019a.6.6 0 0 0 .035.052c.009.014.016.03.026.043L182 982.489a.724.724 0 1 0 1.16-.865l-8.017-10.748.05-.027a8.089 8.089 0 0 1 5.824-1.3 7.421 7.421 0 0 1 6 4.5.724.724 0 0 0 .682.482.732.732 0 0 0 .122-.011.719.719 0 0 0 .555-.245 8.242 8.242 0 0 1 13.839 2.3.784.784 0 0 0 1.3.183 7.421 7.421 0 0 1 7.126-2.346 7.848 7.848 0 0 1 4.989 3.058l.352.391-10.968 7.274a.723.723 0 1 0 .8 1.205l11.543-7.655c.392-.183.4-.616.413-.97.005-.415.008-1.13.003-2.147zm-6.873-2.574a8.946 8.946 0 0 0-7.8 2.094 9.682 9.682 0 0 0-15.145-2.457 9.527 9.527 0 0 0-12.8-3.417c.05-.153.1-.306.161-.457a20.945 20.945 0 0 1 20.344-13.436 12.258 12.258 0 0 0-1.886 1.811c-.078.089-.145.166-.2.226a.723.723 0 0 0 1.065.979c.062-.068.137-.154.224-.252.648-.74 1.971-2.251 3.578-2.472 3.3 1.691 4.546 4.894 4.748 12.087.015.529.02 1.078.015 1.631a.724.724 0 0 0 .716.731h.008a.723.723 0 0 0 .723-.716c.006-.572 0-1.14-.015-1.688-.142-5.061-.73-8.78-2.87-11.268a20.894 20.894 0 0 1 14.558 19.2v.506a8.92 8.92 0 0 0-5.424-3.102z" class="cls-3" data-name="Path 6196" transform="translate(-170.162 -953.864)"/>
        <path id="Path_6197" d="M237.2 973.258a.63.63 0 0 0-.124-.067.763.763 0 0 0-.136-.044.785.785 0 0 0-.284 0 .735.735 0 0 0-.133.044.629.629 0 0 0-.124.067.539.539 0 0 0-.11.089.721.721 0 0 0-.214.509.76.76 0 0 0 .014.142.75.75 0 0 0 .043.136.631.631 0 0 0 .064.125.7.7 0 0 0 .093.11.716.716 0 0 0 1.021 0 .556.556 0 0 0 .09-.11.637.637 0 0 0 .067-.125.74.74 0 0 0 .033-.134.575.575 0 0 0 .014-.142.718.718 0 0 0-.211-.509.539.539 0 0 0-.103-.091z" class="cls-3" data-name="Path 6197" transform="translate(-214.74 -967.559)"/>
        <path id="Path_6198" d="M190.061 1086.172a.723.723 0 1 0 0-1.447h-3.218a.723.723 0 1 0 0 1.447z" class="cls-3" data-name="Path 6198" transform="translate(-179.244 -1046.858)"/>
        <path id="Path_6199" d="M175.584 1073.259a.723.723 0 1 0 0-1.447h-.449a.723.723 0 1 0 0 1.447z" class="cls-3" data-name="Path 6199" transform="translate(-170.924 -1037.682)"/>
        <path id="Path_6200" d="M163.752 1096.214a.743.743 0 0 0-.067-.124.649.649 0 0 0-.09-.11.693.693 0 0 0-.11-.09.661.661 0 0 0-.124-.066.728.728 0 0 0-.136-.041.66.66 0 0 0-.281 0 .729.729 0 0 0-.136.041.66.66 0 0 0-.124.066.7.7 0 0 0-.11.09.719.719 0 0 0 0 1.024.7.7 0 0 0 .11.09.669.669 0 0 0 .124.067.77.77 0 0 0 .275.055.737.737 0 0 0 .512-.211.724.724 0 0 0 .211-.512.591.591 0 0 0-.014-.142.74.74 0 0 0-.04-.137z" class="cls-3" data-name="Path 6200" transform="translate(-162.36 -1054.705)"/>
        <path id="Path_6201" d="M200.736 1040.687l-3.734-.613 3.673-6.743a.723.723 0 0 0-1.271-.692l-3.915 7.187-6.451-1.059-1.385-8.163a.723.723 0 1 0-1.427.242l1.3 7.674-4.346-.713a3.051 3.051 0 0 0-3.5 2.522l-.284 1.9h-3.287a.723.723 0 1 0 0 1.447h3.91a.723.723 0 0 0 .716-.616l.374-2.5a1.6 1.6 0 0 1 1.836-1.319l17.553 2.882a1.6 1.6 0 0 1 1.319 1.836l-2.134 13v.008a1.6 1.6 0 0 1-1.836 1.318l-17.553-2.882a1.6 1.6 0 0 1-1.319-1.834l.618-3.683a.723.723 0 0 0-.713-.843h-6.866a.723.723 0 0 0 0 1.447h6.011l-.477 2.843a3.05 3.05 0 0 0 2.511 3.5l17.553 2.882a3.125 3.125 0 0 0 .5.041 3.046 3.046 0 0 0 3-2.545v-.007l2.136-13.006a3.049 3.049 0 0 0-2.512-3.511z" class="cls-3" data-name="Path 6201" transform="translate(-168.707 -1007.969)"/>
    </g>
</svg>
