<svg xmlns="http://www.w3.org/2000/svg" id="Group_33634" width="48.288" height="54.639" data-name="Group 33634" viewBox="0 0 48.288 54.639">
    <defs>
        <style>
            .cls-1,.cls-2{fill:#1ac977}.cls-1{opacity:.2}.cls-3{fill:#444b54}
        </style>
    </defs>
    <path id="Path_6154" d="M1071.082 1081.532a3.59 3.59 0 0 0 0-5.078 3.591 3.591 0 0 1-1.052-2.539 3.59 3.59 0 0 0-3.59-3.591 3.59 3.59 0 0 1-2.539-1.051 3.591 3.591 0 0 0-5.078 0 3.59 3.59 0 0 1-2.538 1.051 3.591 3.591 0 0 0-3.59 3.591 3.592 3.592 0 0 1-1.051 2.539 3.59 3.59 0 0 0 0 5.077 3.59 3.59 0 0 1 1.051 2.539 3.591 3.591 0 0 0 3.59 3.59 3.592 3.592 0 0 1 2.539 1.051 3.59 3.59 0 0 0 5.078 0 3.591 3.591 0 0 1 2.539-1.051 3.59 3.59 0 0 0 3.59-3.59 3.592 3.592 0 0 1 1.051-2.538z" class="cls-1" data-name="Path 6154" transform="translate(-1032.007 -1035.125)"/>
    <path id="Path_6206" d="M1069.467 1092.969a.865.865 0 0 1-.614-.254l-2.131-2.132a.868.868 0 0 1 1.228-1.227l1.518 1.518 4.771-4.77a.868.868 0 0 1 1.228 1.228l-5.385 5.384a.865.865 0 0 1-.615.253z" class="cls-2" data-name="Path 6206" transform="translate(-1043.288 -1047.651)"/>
    <g id="Group_6073" data-name="Group 6073">
        <path id="Path_6207" d="M1015.787 1019.385a.724.724 0 0 0-.646.794c0 .014.146 1.423.309 3.294a.723.723 0 0 0 .72.661h.063a.723.723 0 0 0 .658-.783c-.163-1.884-.309-3.3-.31-3.317a.722.722 0 0 0-.794-.649z" class="cls-3" data-name="Path 6207" transform="translate(-1006.812 -1000.417)"/>
        <path id="Path_6208" d="M1127.346 1026.087l-2.47-5.232a.723.723 0 0 0-1.308.618l2.479 5.25a.251.251 0 0 1-.065.306l-5.27 4.286a.251.251 0 0 1-.326-.01l-1.887-1.738c.046-2.985.691-9.321.7-9.387a.723.723 0 0 0-1.439-.148c-.029.282-.707 6.946-.708 9.847v4.64a.723.723 0 1 0 1.447 0v-2.988l.91.838a1.7 1.7 0 0 0 2.22.067l5.27-4.285a1.7 1.7 0 0 0 .447-2.064z" class="cls-3" data-name="Path 6208" transform="translate(-1079.232 -1000.418)"/>
        <path id="Path_6209" d="M1001.659 1002.033a70.679 70.679 0 0 0-3.5-.584 96.027 96.027 0 0 1-1.194-.183v-17.957a.717.717 0 0 0-.127-.409c-.014-.79-.065-1.84-.149-3.023a.724.724 0 1 0-1.443.1c.088 1.248.14 2.338.148 3.114l-1.8 1.635a.27.27 0 0 1-.351.012l-5.341-4.287a.249.249 0 0 1-.056-.316l5.917-12.377a.769.769 0 0 1 .275-.3l6.981-3.221a.694.694 0 0 0 .065-.034.317.317 0 0 1 .429.1c2.1 3.45 5.153 5.5 8.43 5.679a.721.721 0 0 0-.094.417c.017.213.012 1.022.008 1.878v.963a.723.723 0 0 0 .721.726.724.724 0 0 0 .724-.721v-.96c.006-1.1.008-1.739-.012-2a.717.717 0 0 0-.108-.322c3.2-.28 6.2-2.307 8.343-5.665a.327.327 0 0 1 .439-.1.672.672 0 0 0 .064.034l7 3.23a.76.76 0 0 1 .268.282l2.018 4.223a.723.723 0 1 0 1.306-.624l-2.028-4.242a2.218 2.218 0 0 0-.862-.906.64.64 0 0 0-.06-.031l-7-3.233a1.768 1.768 0 0 0-2.165.348l-5.362-2.767a.693.693 0 0 0-.064-.029 8.289 8.289 0 0 0-1.724-.146v-.369a.85.85 0 0 1 .514-.753 2.841 2.841 0 0 0 1.589-2.542 2.825 2.825 0 0 0-2.825-2.823 2.827 2.827 0 0 0-2.823 2.827.723.723 0 0 0 .723.723.723.723 0 0 0 .723-.724 1.38 1.38 0 0 1 1.377-1.379 1.378 1.378 0 0 1 .623 2.608 2.3 2.3 0 0 0-1.348 2.047v.382a9.013 9.013 0 0 0-1.852.146.673.673 0 0 0-.064.029l-5.439 2.779a1.756 1.756 0 0 0-2.166-.348l-6.987 3.22-.06.031a2.233 2.233 0 0 0-.871.925l-5.917 12.377a1.691 1.691 0 0 0 .449 2.088l5.339 4.286a1.713 1.713 0 0 0 2.228-.068l.952-.865v16.389a1.324 1.324 0 0 0 .957 1.324.73.73 0 0 0 .079.018c.415.069.884.138 1.391.214 1.05.157 2.24.334 3.428.572a.7.7 0 0 0 .143.014.723.723 0 0 0 .141-1.433zm6.91-40.2a31.719 31.719 0 0 1 3.991 0l5.089 2.627c-1.979 2.613-4.56 4.089-7.227 4.089h-.076c-2.648-.027-5.087-1.461-6.967-4.063z" class="cls-3" data-name="Path 6209" transform="translate(-986.367 -953.846)"/>
        <path id="Path_6210" d="M1062.441 1064.683a4.319 4.319 0 0 0-4.314-4.314 2.847 2.847 0 0 1-2.027-.84 4.319 4.319 0 0 0-6.1 0 2.844 2.844 0 0 1-2.026.84 4.319 4.319 0 0 0-4.314 4.314 2.848 2.848 0 0 1-.84 2.027 4.319 4.319 0 0 0 0 6.1 2.848 2.848 0 0 1 .84 2.027 4.319 4.319 0 0 0 4.313 4.313 2.847 2.847 0 0 1 2.027.84 4.319 4.319 0 0 0 6.1 0 2.849 2.849 0 0 1 2.027-.84 4.319 4.319 0 0 0 4.314-4.314 2.849 2.849 0 0 1 .84-2.028 4.319 4.319 0 0 0 0-6.1 2.849 2.849 0 0 1-.84-2.025zm-.183 7.1a4.285 4.285 0 0 0-1.263 3.051 2.87 2.87 0 0 1-2.867 2.867 4.286 4.286 0 0 0-3.051 1.264 2.871 2.871 0 0 1-4.054 0 4.287 4.287 0 0 0-3.05-1.263 2.871 2.871 0 0 1-2.867-2.867 4.285 4.285 0 0 0-1.263-3.05 2.871 2.871 0 0 1 0-4.055 4.286 4.286 0 0 0 1.263-3.05 2.87 2.87 0 0 1 2.867-2.867 4.283 4.283 0 0 0 3.05-1.264 2.871 2.871 0 0 1 4.054 0 4.284 4.284 0 0 0 3.051 1.264 2.87 2.87 0 0 1 2.867 2.867 4.287 4.287 0 0 0 1.263 3.05 2.871 2.871 0 0 1 0 4.057z" class="cls-3" data-name="Path 6210" transform="translate(-1025.586 -1028.051)"/>
    </g>
</svg>
