<svg xmlns="http://www.w3.org/2000/svg" id="Group_33635" width="51.875" height="51.141" data-name="Group 33635" viewBox="0 0 51.875 51.141">
    <defs>
        <style>
            .cls-1,.cls-3{fill:#1ac977}.cls-1{opacity:.2}.cls-2{fill:#454b53}
        </style>
    </defs>
    <g id="Group_6075" data-name="Group 6075">
        <path id="Path_6164" d="M636.867 1095.346a2.939 2.939 0 0 0 2.929-2.691l.9-10.614a2.9 2.9 0 0 0-2.663-3.123 2.896 2.896 0 0 0-.228-.009h-24.36a2.9 2.9 0 0 0-2.9 2.9c0 .076 0 .153.009.229l.9 10.615a2.939 2.939 0 0 0 2.928 2.691z" class="cls-1" data-name="Path 6164" transform="translate(-597.667 -1044.206)"/>
        <g id="Group_6075-2" data-name="Group 6075">
            <path id="Path_6211" d="M616.419 1004.3h-9.949l1-11.97a8.9 8.9 0 0 1 4.2 5.315c.048.185.149.548.281 1.024.289 1.037.725 2.6 1.076 4a.711.711 0 0 0 1.386-.316c0-.01 0-.019-.007-.029a165.64 165.64 0 0 0-1.085-4.037 67.24 67.24 0 0 1-.274-1 10.489 10.489 0 0 0-5.021-6.294c-.137-.085-.3-.162-.436-.253a3.746 3.746 0 0 0-3.437-3.821 3.93 3.93 0 0 0-.294-.013h-4.4a1.883 1.883 0 0 1-.334-2.642.711.711 0 0 0-1.213-.742 3.458 3.458 0 0 0-.28 3.384H584.75a3.507 3.507 0 0 0-.279-3.391 21.174 21.174 0 0 1-1.688-3.308 4 4 0 0 0-1.525-2.118c-.138-.091-.3-.189-.472-.291-.421-.251-1.2-.719-1.251-1.031a29.74 29.74 0 0 1-.341-3.687 1.6 1.6 0 0 1 .7-1.359c.067-.047.151-.1.243-.159l.011-.007c.264 1.594.609 3.646.647 3.873a.709.709 0 0 0 1.411-.1.725.725 0 0 0-.011-.108h.006l-.82-4.919s-.114-1.031-.137-1.277l-.085-.885c-.036-1.265-.028-1.443 0-2.025.011-.266.026-.611.042-1.171a3.321 3.321 0 0 1 1.959-3.333 3.1 3.1 0 0 0 1.355-1.139 4.666 4.666 0 0 1 3.625-1.989 15.863 15.863 0 0 1 7.913.648c3.131 1.15 4.84 3.09 5.225 5.931a11.453 11.453 0 0 1-.088 2.725c-.045.412-.091.838-.118 1.245-.022.243-.077.793-.133 1.294a969.14 969.14 0 0 1-.6 3.608v.025l-.01.058c0 .023-.007.044-.007.068a.71.71 0 0 0 1.4.166h.006l.448-2.686h.007c.091.058.175.111.25.164a1.593 1.593 0 0 1 .7 1.345 30.4 30.4 0 0 1-.341 3.7c-.015.1-.142.334-.83.77a.711.711 0 0 0 .761 1.2 2.783 2.783 0 0 0 1.469-1.743 31.874 31.874 0 0 0 .356-3.876 3.009 3.009 0 0 0-1.306-2.547 14.112 14.112 0 0 0-.3-.2 6.131 6.131 0 0 1-.523-.363c.008-.092-.033.038-.059-.046.04-.2.114-.7.131-.9.026-.394.06-.7.106-1.12a12.67 12.67 0 0 0 .085-3.069c-.455-3.365-2.522-5.746-6.144-7.076a17.244 17.244 0 0 0-8.607-.72 6.131 6.131 0 0 0-4.608 2.616 1.684 1.684 0 0 1-.736.616 4.718 4.718 0 0 0-2.81 4.6c-.015.549-.028.888-.041 1.149-.026.609-.035.814 0 2.152a.43.43 0 0 0 0 .048l.089.906c.018.2.089.607.13.8a.032.032 0 0 0 0 .006.289.289 0 0 0-.06.035c-.147.1-.391.279-.527.366a7.517 7.517 0 0 0-.29.191 3.014 3.014 0 0 0-1.313 2.56 31.056 31.056 0 0 0 .356 3.867c.146.973 1.135 1.564 1.929 2.037.152.091.295.176.417.256a2.642 2.642 0 0 1 .985 1.45 22.6 22.6 0 0 0 1.8 3.533 1.909 1.909 0 0 1-.323 2.646h-4.477a3.807 3.807 0 0 0-3.733 3.838 1.518 1.518 0 0 1-.347.248 10.5 10.5 0 0 0-5.023 6.294c-.048.186-.151.556-.284 1.041-.251.9-.63 2.263-.952 3.519a.711.711 0 0 0 .512.865.7.7 0 0 0 .177.023.711.711 0 0 0 .688-.535c.318-1.242.695-2.6.944-3.491.138-.5.244-.878.293-1.068a8.863 8.863 0 0 1 4.125-5.264l1 11.919h-9.891a.711.711 0 1 0 0 1.422h50.453a.711.711 0 0 0 0-1.422zm-10.256-13.422l-1.12 13.425h-27.76l-1.12-13.427a2.715 2.715 0 0 1-.009-.179 2.343 2.343 0 0 1 2.314-2.363h25.383c.06 0 .12 0 .18.009a2.344 2.344 0 0 1 2.132 2.54z" class="cls-2" data-name="Path 6211" transform="translate(-565.255 -956.851)"/>
            <path id="Path_6212" d="M654.919 1028.576l-3.68.3a1.851 1.851 0 0 0-1.771-1.323H646.5a1.85 1.85 0 0 0-1.848 1.848v.248a1.85 1.85 0 0 0 1.848 1.848h2.969a1.85 1.85 0 0 0 1.725-1.19l3.822-.309a3.145 3.145 0 0 0 2.911-2.5l.446-2.172a.711.711 0 0 0-1.393-.286l-.445 2.172a1.729 1.729 0 0 1-1.616 1.364zm-5.025 1.069a.427.427 0 0 1-.427.427H646.5a.426.426 0 0 1-.427-.427v-.248a.427.427 0 0 1 .427-.427h2.968a.427.427 0 0 1 .427.427z" class="cls-2" data-name="Path 6212" transform="translate(-622.077 -1005.241)"/>
        </g>
        <path id="Path_6213" d="M649.163 1093.239a.967.967 0 0 1 1.126-1.038c.233.059 3.066.677 4.026 1.023a.953.953 0 0 1 .482 1.258l-.011.024a1.577 1.577 0 0 1-.4.427c-.923.763-1.856 1.514-2.769 2.288a1.318 1.318 0 0 1-.82.411.952.952 0 0 1-.987-.792q-.33-1.798-.647-3.601z" class="cls-3" data-name="Path 6213" transform="translate(-625.303 -1053.708)"/>
    </g>
</svg>
