<svg id="Group_36647" data-name="Group 36647" xmlns="http://www.w3.org/2000/svg" width="21.561" height="17.567" viewBox="0 0 21.561 17.567">
  <path id="Shape" d="M21.561,2.083a8.042,8.042,0,0,1-2.515.724A4.813,4.813,0,0,0,21.022.362a8.117,8.117,0,0,1-2.785,1.087A4.334,4.334,0,0,0,15,0a4.427,4.427,0,0,0-4.4,4.437,3.422,3.422,0,0,0,.09,1A12.373,12.373,0,0,1,1.527.724,4.112,4.112,0,0,0,.9,2.988,4.556,4.556,0,0,0,2.875,6.7,3.6,3.6,0,0,1,.9,6.158v.091a4.383,4.383,0,0,0,3.5,4.347,4.518,4.518,0,0,1-1.168.181,2.468,2.468,0,0,1-.809-.091,4.263,4.263,0,0,0,4.132,3.079,8.941,8.941,0,0,1-5.48,1.9A4.34,4.34,0,0,1,0,15.575,12.535,12.535,0,0,0,19.315,4.89V4.347A10.688,10.688,0,0,0,21.561,2.083Z" transform="translate(0 0)" fill="#111"/>
</svg>
