<svg id="Group_36646" data-name="Group 36646" xmlns="http://www.w3.org/2000/svg" width="21.086" height="18.098" viewBox="0 0 21.086 18.098">
  <g id="Group" transform="translate(0 0)">
    <path id="Shape" d="M20.743.226a.984.984,0,0,0-.976-.162L.621,7.3A.944.944,0,0,0,.631,9.08L5.1,10.716l1.745,5.5a.959.959,0,0,0,.647.628.983.983,0,0,0,.892-.174l2.6-2.077a.362.362,0,0,1,.434-.012l4.69,3.337a.983.983,0,0,0,.92.118.952.952,0,0,0,.6-.693l3.436-16.2A.94.94,0,0,0,20.743.226Z" transform="translate(0)"/>
    <path id="Shape-2" data-name="Shape" d="M9.286.084.614,5.318A1.26,1.26,0,0,0,.049,6.744L.987,9.972a.637.637,0,0,0,.618.458l.048,0a.633.633,0,0,0,.592-.545l.244-1.77a1.039,1.039,0,0,1,.33-.624L9.974.97a.55.55,0,0,0,.067-.748A.577.577,0,0,0,9.286.084Z" transform="translate(6.581 3.554)" fill="#fff"/>
  </g>
</svg>
