<svg id="Group_36645" data-name="Group 36645" xmlns="http://www.w3.org/2000/svg" width="20.027" height="20.028" viewBox="0 0 20.027 20.028">
  <path id="Shape" d="M10.014,20.028c-2.714,0-3.068-.011-4.129-.06a5.966,5.966,0,0,1-4.2-1.621,5.972,5.972,0,0,1-1.621-4.2C.011,13.063,0,12.706,0,10.014S.011,6.965.06,5.885a5.972,5.972,0,0,1,1.621-4.2A5.972,5.972,0,0,1,5.885.06C6.965.011,7.323,0,10.014,0s3.049.011,4.129.06a5.972,5.972,0,0,1,4.2,1.621,5.967,5.967,0,0,1,1.621,4.2c.049,1.062.06,1.416.06,4.129s-.011,3.068-.06,4.129a5.967,5.967,0,0,1-1.621,4.2,5.966,5.966,0,0,1-4.2,1.621C13.082,20.016,12.728,20.028,10.014,20.028Zm0-18.223c-2.672,0-2.989.01-4.047.058a4.1,4.1,0,0,0-3.01,1.094,4.35,4.35,0,0,0-1.094,3.01C1.814,7.025,1.8,7.342,1.8,10.014s.01,2.988.058,4.046a4.108,4.108,0,0,0,1.094,3.011,4.351,4.351,0,0,0,3.01,1.094c1.039.048,1.353.058,4.047.058s3.007-.01,4.046-.058a4.108,4.108,0,0,0,3.011-1.094,4.355,4.355,0,0,0,1.094-3.011c.048-1.039.058-1.353.058-4.046s-.01-3.008-.058-4.047a4.1,4.1,0,0,0-1.094-3.01A4.354,4.354,0,0,0,14.06,1.863C13,1.814,12.685,1.8,10.014,1.8Z" transform="translate(0 0)" fill="#111"/>
  <path id="Shape-2" data-name="Shape" d="M5.142,10.285a5.142,5.142,0,1,1,5.142-5.142A5.148,5.148,0,0,1,5.142,10.285Zm0-8.48A3.338,3.338,0,1,0,8.48,5.142,3.342,3.342,0,0,0,5.142,1.8Z" transform="translate(4.872 4.872)" fill="#111"/>
  <ellipse id="Oval" cx="1.202" cy="1.202" rx="1.202" ry="1.202" transform="translate(14.158 3.466)" fill="#111"/>
</svg>
