<svg xmlns="http://www.w3.org/2000/svg" xmlns:xlink="http://www.w3.org/1999/xlink" width="33.941" height="33.941" viewBox="0 0 33.941 33.941">
    <defs>
        <radialGradient id="m28vftn69b" cx="-.01" cy=".484" r="1.357" gradientTransform="matrix(-2 0 0 1 -16.423 0)" xlink:href="#lco9prejra"/>
        <radialGradient id="per52kivmc" cx=".99" cy=".484" r="1.357" gradientTransform="matrix(-2 0 0 1 -13.423 0)" xlink:href="#lco9prejra"/>
        <clipPath id="ia34odaoud">
            <path data-name="Path 60" d="M112.246-2245.4a3.277 3.277 0 0 1 3.816-3.52 11.5 11.5 0 0 1 2.3.832c.4 1.711.581 3.469.974 5.184a2.672 2.672 0 0 1 2.262.023 2.134 2.134 0 0 1 1.021 2.7 5.037 5.037 0 0 1-1.655 1.71c-.749.6-1.458 1.244-2.2 1.852-.683-3.294-1.159-6.632-1.812-9.93-.286-.8-1.445-.529-1.611.225.726 3.654 1.312 7.335 1.982 11 .062.4.244.9.7.974.378.088.679-.185.951-.394 1.354-1.126 2.738-2.214 4.087-3.342a3.791 3.791 0 0 0 1.225-3.934 3.937 3.937 0 0 0-3.637-2.751 63.297 63.297 0 0 1-.719-4.178c3.253 1.179 6.519 2.328 9.772 3.506a3.229 3.229 0 0 1 1.6 4.346 5.314 5.314 0 0 1-1.35 1.445c-3.128 2.586-6.29 5.134-9.386 7.755a4.455 4.455 0 0 1-2.778 1.394 3.23 3.23 0 0 1-3.347-2.686q-1.123-6.105-2.195-12.211z" transform="translate(-112.214 2248.986)" style="fill:none"/>
        </clipPath>
        <clipPath id="sg5gfi4gqe">
            <path data-name="Path 59" d="M0-522.48h277.828V-2289H0z" transform="translate(0 2289.001)" style="fill:none"/>
        </clipPath>
        <linearGradient id="lco9prejra" x1="-2.242" y1=".467" x2="-2.242" y2="1.309" gradientUnits="objectBoundingBox">
            <stop offset=".02" stop-color="#fff" stop-opacity="0"/>
            <stop offset="1" stop-color="#f9a825"/>
        </linearGradient>
    </defs>
    <g data-name="Group 33551">
        <g data-name="Asset 2" style="isolation:isolate">
            <g transform="translate(-7.03 -7.03)" data-name="Layer 2">
                <circle data-name="Ellipse 1" cx="16.97" cy="16.97" r="16.97" transform="translate(7.03 7.03)" style="fill:#fdd835"/>
                <circle data-name="Ellipse 2" cx="15.361" cy="15.361" r="15.361" transform="translate(8.639 8.522)" style="fill:#fbc02d"/>
                <circle data-name="Ellipse 3" cx="15.361" cy="15.361" r="15.361" transform="translate(8.639 8.522)" style="fill:url(#lco9prejra);mix-blend-mode:multiply;isolation:isolate"/>
                <g data-name="Group 33548" style="mix-blend-mode:multiply;isolation:isolate">
                    <path data-name="Path 29608" d="M340.709 44.05c0-8.483-6.612-15.36-14.769-15.36a15.36 15.36 0 1 1 0 30.719c8.16.001 14.769-6.876 14.769-15.359z" transform="translate(-301.94 -20.167)" style="fill:url(#m28vftn69b);mix-blend-mode:multiply;isolation:isolate"/>
                    <path data-name="Path 29609" d="M46.3 28.67c-8.157 0-14.769 6.877-14.769 15.36S38.143 59.39 46.3 59.39a15.36 15.36 0 0 1 0-30.719z" transform="translate(-22.3 -20.148)" style="fill:url(#per52kivmc);mix-blend-mode:multiply;isolation:isolate"/>
                </g>
            </g>
        </g>
        <g data-name="Group 33550">
            <g data-name="Component 6244">
                <g data-name="Group 101">
                    <g data-name="Group 48" style="clip-path:url(#ia34odaoud)" transform="translate(8.816 9.381)">
                        <g data-name="Group 47" transform="translate(-86.6 -30.881)" style="clip-path:url(#sg5gfi4gqe)">
                            <path data-name="Path 58" d="M107.214-2253.985h27.13v26.2h-27.13z" transform="translate(-24.472 2281.008)" style="fill:#fab326"/>
                        </g>
                    </g>
                </g>
            </g>
            <g data-name="Component 22 – 1">
                <g data-name="Group 101">
                    <g data-name="Group 48" style="clip-path:url(#ia34odaoud)" transform="translate(8.418 8.784)">
                        <g data-name="Group 47" transform="translate(-86.6 -30.881)" style="clip-path:url(#sg5gfi4gqe)">
                            <path data-name="Path 58" d="M107.214-2253.985h27.13v26.2h-27.13z" transform="translate(-24.472 2281.008)" style="fill:#fcd93f"/>
                        </g>
                    </g>
                </g>
            </g>
        </g>
    </g>
</svg>
